<?xml version="1.0" encoding="UTF-8"?>
<svg width="30px" height="30px" viewBox="0 0 30 30" version="1.1" xmlns="http://www.w3.org/2000/svg" xmlns:xlink="http://www.w3.org/1999/xlink">
    <!-- Generator: sketchtool 50.2 (55047) - http://www.bohemiancoding.com/sketch -->
    <title>379D35C8-8CD1-44DD-8CEF-1518B06B8D50</title>
    <desc>Created with sketchtool.</desc>
    <defs></defs>
    <g id="Desktop" stroke="none" stroke-width="1" fill="none" fill-rule="evenodd">
        <g id="Landing" transform="translate(-1050.000000, -3408.000000)">
            <g id="talk_to_us_section" transform="translate(0.000000, 3339.000000)">
                <g id="Request-Callback" transform="translate(1030.000000, 56.000000)">
                    <g id="ic-callback-white" transform="translate(20.000000, 13.000000)">
                        <rect id="Rectangle-25" x="0" y="0" width="30" height="30"></rect>
                        <path d="M15.7,5.2 L18.1,5.2 C21.4137085,5.2 24.1,7.8862915 24.1,11.2 L24.1,11.5" id="Rectangle" stroke="#FFFFFF" stroke-width="2" stroke-linecap="round" stroke-linejoin="round"></path>
                        <polygon id="Triangle" stroke="#FFFFFF" stroke-width="2" stroke-linecap="round" stroke-linejoin="round" transform="translate(24.100000, 13.366667) scale(1, -1) translate(-24.100000, -13.366667) " points="24.1 11.5 26.9 15.2333333 21.3 15.2333333"></polygon>
                        <path d="M19.0918498,26.6666667 C18.7042862,26.6016012 18.3138936,26.5506805 17.9291589,26.4686415 C16.4940294,26.1138915 15.1186808,25.550599 13.8470106,24.7967429 C11.8454984,23.6844358 10.0316262,22.2638875 8.4720405,20.5872926 C6.57382739,18.5250015 4.99528354,16.2533694 3.99949961,13.6111472 C3.61365686,12.6605389 3.39174281,11.6514039 3.34318747,10.6266244 C3.26799568,9.61295689 3.62570156,8.61487525 4.32765568,7.87973176 C4.92173132,7.27151146 5.49600444,6.64065971 6.13534298,6.08618911 C7.12264012,5.23750962 8.19763414,5.23750962 9.15098409,6.12579415 C10.1580838,7.07065731 11.1312362,8.06361231 12.0676126,9.0735409 C12.7802826,9.84180144 12.7802826,11.0295415 12.0676126,11.7978021 C11.5697206,12.3635884 11.018079,12.8784539 10.4918977,13.4187799 C10.4438058,13.4640428 10.3928851,13.5036478 10.3051882,13.5828579 C11.7103808,16.1264582 13.8087355,18.218927 16.3562729,19.6169691 L17.6123186,18.3467788 C17.9208051,17.9823013 18.3076166,17.6921926 18.7438912,17.4980993 C19.444411,17.1934072 20.2593218,17.3383298 20.8118402,17.8658604 C21.8660888,18.8691881 22.8939339,19.9008052 23.8953757,20.9607116 C24.5983341,21.7141063 24.6214962,22.8758687 23.9491254,23.6566834 C23.3154447,24.4035214 22.6138697,25.1107543 21.9038079,25.7953557 C21.3981962,26.2603869 20.7544836,26.5474748 20.0706602,26.612917 C20.0218373,26.6244459 19.9736749,26.6386113 19.9263846,26.6553509 L19.0918498,26.6666667 Z" id="Shape" stroke="#FFFFFF" stroke-width="2" stroke-linejoin="round" fill-rule="nonzero"></path>
                    </g>
                </g>
            </g>
        </g>
    </g>
</svg>